Coordinates
version=1
nRows=13
nColumns=40
inDegrees=yes

Units are S.I. units (second, meters, Newtons, ...)
Angles are in degrees.

endheader
time	pelvis_tilt	pelvis_list	pelvis_rotation	pelvis_tx	pelvis_ty	pelvis_tz	hip_flexion_r	hip_adduction_r	hip_rotation_r	knee_angle_r	knee_angle_r_beta	ankle_angle_r	subtalar_angle_r	mtp_angle_r	hip_flexion_l	hip_adduction_l	hip_rotation_l	knee_angle_l	knee_angle_l_beta	ankle_angle_l	subtalar_angle_l	mtp_angle_l	lumbar_extension	lumbar_bending	lumbar_rotation	arm_flex_r	arm_add_r	arm_rot_r	elbow_flex_r	pro_sup_r	wrist_flex_r	wrist_dev_r	arm_flex_l	arm_add_l	arm_rot_l	elbow_flex_l	pro_sup_l	wrist_flex_l	wrist_dev_l
      6.56500000	     -3.80654475	     -4.78573368	      4.86610339	      1.05286067	      0.92573781	      0.44844203	      6.57869475	     -2.74874179	    -12.89906813	     33.01652073	     33.01652073	     11.90749441	     -7.93290174	    -12.18608031	     24.64059958	     -5.58633734	     -2.67833941	     25.12198580	     25.12198580	      7.67167186	    -11.63542920	      3.13758192	     -8.44442712	      4.09730204	      3.81221002	     26.71784948	    -13.28021191	      2.13919828	     78.16841914	     45.21406051	      0.00000000	      0.00000000	     -0.74619377	     -9.70822451	      2.22559527	     32.07528808	     44.97270773	      0.00000000	      0.00000000
      6.57828571	     -3.69143850	     -4.68544523	      4.49521695	      1.05272365	      0.92634189	      0.44609854	      8.24166742	     -3.47965306	    -12.31187476	     36.73890576	     36.73890576	     10.73320660	     -9.01446450	    -12.52533083	     24.00698969	     -5.52748143	     -3.21568700	     25.05882764	     25.05882764	      8.04461513	    -11.42283490	      2.89972538	     -8.74432570	      3.93224231	      4.01670086	     25.32690329	    -13.23725557	      2.46110645	     76.61260604	     45.24849354	      0.00000000	      0.00000000	      0.56227848	     -9.99824223	      2.15639798	     32.60453976	     45.00849601	      0.00000000	      0.00000000
      6.59157143	     -3.79628120	     -4.62015007	      4.06968630	      1.05233833	      0.92650510	      0.44405839	     10.29149026	     -4.06254370	    -11.45942335	     40.52038236	     40.52038236	      9.32455741	    -10.50136314	    -12.65969150	     23.62447975	     -5.52023351	     -3.81343844	     24.98905518	     24.98905518	      8.41743560	    -11.13530259	      2.53999970	     -8.71961878	      3.72063346	      4.31909627	     23.92014865	    -13.28423785	      2.81063358	     73.94488911	     45.31832170	      0.00000000	      0.00000000	      1.87234216	    -10.30626167	      2.16296598	     33.13989988	     45.03680614	      0.00000000	      0.00000000
      6.60485714	     -3.72352810	     -4.66453526	      3.69928158	      1.05188924	      0.92684154	      0.44221136	     12.13281770	     -4.36428616	    -10.54181910	     44.07903985	     44.07903985	      7.87883244	    -12.12726222	    -12.10149288	     23.14161591	     -5.67004977	     -4.42920310	     25.04243339	     25.04243339	      8.73540515	    -10.74256485	      1.80075817	     -8.79945110	      3.64320192	      3.94097392	     23.74077767	    -12.54167294	      3.38917922	     68.36142490	     45.47846483	      0.00000000	      0.00000000	      2.96661238	    -10.81936778	      2.58688451	     33.47656223	     45.02957081	      0.00000000	      0.00000000
      6.61814286	     -3.67323943	     -4.46849414	      3.37989182	      1.05127585	      0.92706173	      0.44016912	     14.01726468	     -5.08196360	     -9.96468855	     47.59016571	     47.59016571	      6.53479658	    -12.87351333	    -11.89902591	     22.61235025	     -5.46873651	     -4.89718053	     24.97407484	     24.97407484	      9.04169632	    -10.62608343	      1.57888402	     -9.04341546	      3.35153733	      3.79303637	     22.16442900	    -12.43418936	      3.75988243	     66.70952772	     45.51205228	      0.00000000	      0.00000000	      4.23674543	    -11.26521141	      2.53905988	     34.06064966	     45.06102255	      0.00000000	      0.00000000
      6.63142857	     -3.65812688	     -4.47897924	      3.08835866	      1.05054820	      0.92728486	      0.43834788	     15.98881551	     -5.40959746	     -9.27029405	     50.98855929	     50.98855929	      6.22276744	    -13.12872678	     -8.49128897	     22.15010442	     -5.48918789	     -5.28681878	     24.87331578	     24.87331578	      9.18728148	    -10.50856393	      0.87646481	     -9.04604143	      3.29643752	      3.16678264	     22.13401659	    -11.69997328	      4.37804715	     60.48953984	     45.67541443	      0.00000000	      0.00000000	      5.06651569	    -11.94719242	      3.24910548	     34.82645582	     45.05299661	      0.00000000	      0.00000000
      6.64471429	     -3.54280469	     -4.37168189	      2.85045005	      1.04975110	      0.92760395	      0.43645930	     17.68831591	     -5.87134167	     -8.71643620	     53.80715277	     53.80715277	      5.04645663	    -13.70404067	     -8.12934652	     21.61008635	     -5.35315800	     -5.60691466	     24.84170401	     24.84170401	      9.51137995	    -10.43282922	      0.69654286	     -9.35920133	      3.17089751	      3.01988138	     20.37902268	    -11.82023675	      4.58372617	     58.98238073	     45.70859036	      0.00000000	      0.00000000	      6.43501458	    -12.40363214	      3.17077483	     35.35935203	     45.08909449	      0.00000000	      0.00000000
      6.65800000	     -3.57345898	     -4.38890109	      2.53629453	      1.04881038	      0.92787278	      0.43491308	     19.53049237	     -6.05512167	     -8.05187287	     56.27598960	     56.27598960	      4.21939844	    -14.13962862	     -7.09202547	     21.18610222	     -5.36274516	     -5.89891112	     24.70351352	     24.70351352	      9.83443332	    -10.32624635	      0.46627896	     -9.43847763	      3.07806473	      3.36159023	     18.79609043	    -12.24099796	      4.59571402	     55.99200733	     45.80017358	      0.00000000	      0.00000000	      7.98650064	    -12.56003345	      3.30625905	     35.82123162	     45.10657431	      0.00000000	      0.00000000
      6.67128571	     -3.42987058	     -4.49956104	      2.36184905	      1.04796222	      0.92857982	      0.43323006	     21.01560354	     -6.16011556	     -7.66897505	     58.25996136	     58.25996136	      4.10359492	    -14.01479670	     -4.74009943	     20.60880643	     -5.44177828	     -6.11626388	     24.57778133	     24.57778133	      9.99872503	    -10.28498794	      0.19810189	     -9.64078414	      3.26222916	      3.36352375	     17.91063283	    -12.08309446	      4.15594167	     50.80963829	     45.98488764	      0.00000000	      0.00000000	      9.74657551	    -12.87887452	      3.96555615	     35.61108759	     45.07602746	      0.00000000	      0.00000000
      6.68457143	     -3.37451751	     -4.49171473	      2.15254985	      1.04702583	      0.92916519	      0.43165960	     22.52437267	     -6.35765468	     -7.25881256	     59.79570246	     59.79570246	      3.85739768	    -13.95195427	     -3.64394518	     20.06939153	     -5.36630678	     -6.29456239	     24.36091058	     24.36091058	     10.22063164	    -10.33441118	      0.07075961	     -9.80703208	      3.29036384	      3.05306576	     16.56575165	    -12.03518546	      3.84527162	     47.88813874	     46.08631169	      0.00000000	      0.00000000	     11.08060710	    -13.34638765	      4.28269936	     35.78094931	     45.07329547	      0.00000000	      0.00000000
      6.69785714	     -3.28484988	     -4.59367544	      1.95765790	      1.04610909	      0.93001736	      0.43021966	     23.86373549	     -6.39693225	     -6.95289927	     60.82352741	     60.82352741	      4.16321362	    -13.54542836	     -1.38778241	     19.46634567	     -5.38555801	     -6.33979817	     24.07209310	     24.07209310	     10.36916002	    -10.48743557	     -0.20441132	     -9.93056508	      3.42507632	      2.45397346	     16.25054755	    -11.34264710	      2.32985705	     42.27484973	     46.32508899	      0.00000000	      0.00000000	     12.46104323	    -13.93986921	      5.55037409	     35.28524213	     44.99381398	      0.00000000	      0.00000000
      6.71114286	     -3.19717724	     -4.73713432	      1.71870770	      1.04520784	      0.93091275	      0.42892574	     25.01924050	     -6.32807790	     -6.68140222	     61.18524624	     61.18524624	      3.92976510	    -13.50972701	     -1.26171172	     18.85218921	     -5.46832027	     -6.43581143	     23.77263312	     23.77263312	     10.57297896	    -10.59155430	     -0.21225904	    -10.16925921	      3.63274700	      2.65195501	     14.39234111	    -11.90484040	      2.05020875	     40.40678218	     46.38782077	      0.00000000	      0.00000000	     13.83655615	    -14.13695543	      5.61200585	     36.06044549	     45.02241212	      0.00000000	      0.00000000
      6.72442857	     -3.11047449	     -4.89366925	      1.46560378	      1.04430175	      0.93188143	      0.42774578	     26.04067282	     -6.19729421	     -6.43012295	     61.03869982	     61.03869982	      3.77135845	    -13.45416603	     -1.19128340	     18.21289577	     -5.55668123	     -6.49114823	     23.42314858	     23.42314858	     10.73312959	    -10.76645610	     -0.23452116	    -10.38586449	      3.86601299	      2.73992893	     12.85208888	    -12.28966120	      1.48655943	     37.88312855	     46.49192573	      0.00000000	      0.00000000	     15.20723463	    -14.32866306	      5.89870893	     36.59110244	     45.02807450	      0.00000000	      0.00000000
